<svg width="32" height="32" viewBox="0 0 32 32" fill="none" xmlns="http://www.w3.org/2000/svg">
<path d="M1 9C1 6.79086 2.79086 5 5 5H26.9999C29.2091 5 30.9999 6.79086 30.9999 9V23C30.9999 25.2091 29.2091 27 26.9999 27H5C2.79086 27 1 25.2091 1 23V9Z" fill="#808080"/>
<path d="M18.698 11.4958H13.3534V20.486H18.698V11.4958Z" fill="#FF5F00"/>
<path d="M13.6927 15.99C13.6917 15.1242 13.9013 14.2697 14.3055 13.491C14.7097 12.7123 15.2979 12.03 16.0257 11.4956C15.1246 10.8325 14.0425 10.4201 12.9029 10.3055C11.7632 10.1909 10.6122 10.3788 9.58122 10.8476C8.55027 11.3164 7.68105 12.0472 7.07292 12.9566C6.46479 13.866 6.14229 14.9171 6.14229 15.99C6.14229 17.0628 6.46479 18.114 7.07292 19.0233C7.68105 19.9327 8.55027 20.6635 9.58122 21.1324C10.6122 21.6012 11.7632 21.789 12.9029 21.6744C14.0425 21.5598 15.1246 21.1474 16.0257 20.4843C15.2979 19.95 14.7097 19.2676 14.3055 18.4889C13.9013 17.7102 13.6917 16.8557 13.6927 15.99Z" fill="#EB001B"/>
<path d="M25.9072 15.9901C25.9069 17.0626 25.5844 18.1134 24.9763 19.0225C24.3683 19.9315 23.4993 20.6622 22.4687 21.1309C21.4381 21.5997 20.2874 21.7876 19.1481 21.6733C18.0088 21.559 16.9267 21.1469 16.0257 20.4843C16.7526 19.9493 17.3403 19.2669 17.7444 18.4884C18.1485 17.7099 18.3585 16.8556 18.3585 15.9901C18.3585 15.1246 18.1485 14.2703 17.7444 13.4918C17.3403 12.7133 16.7526 12.0306 16.0257 11.4956C16.9267 10.8331 18.0088 10.4212 19.1481 10.3069C20.2874 10.1926 21.4381 10.3805 22.4687 10.8493C23.4993 11.318 24.3683 12.0487 24.9763 12.9577C25.5844 13.8668 25.9069 14.9176 25.9072 15.9901Z" fill="#F79E1B"/>
<path d="M25.3253 19.5331V19.3489H25.4033V19.3108H25.2031V19.3489H25.2828V19.5331H25.3253ZM25.7172 19.5331V19.3108H25.6544L25.5832 19.4696L25.5119 19.3108H25.4508V19.5331H25.4949V19.3648L25.5611 19.5093H25.6069L25.6731 19.3648V19.5331H25.7172Z" fill="#F79E1B"/>
</svg>
