<svg width="32" height="32" viewBox="0 0 32 32" fill="none" xmlns="http://www.w3.org/2000/svg">
<path fill-rule="evenodd" clip-rule="evenodd" d="M12.5976 2.4267C13.4885 1.51338 14.7182 1 16 1C17.2818 1 18.5115 1.51338 19.4024 2.4267L29.6521 11.2418C29.8729 11.4318 30 11.7087 30 12V26C30 27.6569 28.6569 29 27 29H5C3.34315 29 2 27.6569 2 26V12C2 11.7087 2.12706 11.4318 2.34794 11.2418L12.5976 2.4267ZM16 3C15.2404 3 14.5198 3.30872 14.0085 3.84479C13.9858 3.86861 13.9619 3.89129 13.9369 3.91276L4.56062 11.9768L14.0924 19.693C14.7774 20.1453 15.3432 20.3984 15.8892 20.4404C16.4051 20.4801 17.041 20.3404 17.8857 19.7107L27.4394 11.9768L18.0631 3.91276C18.0381 3.89129 18.0142 3.86861 17.9915 3.84479C17.4802 3.30872 16.7596 3 16 3ZM28 14.0961L21.0978 19.6836L24.7071 23.2929C25.0976 23.6834 25.0976 24.3166 24.7071 24.7071C24.3166 25.0976 23.6834 25.0976 23.2929 24.7071L19.5347 20.949L19.1292 21.2772C19.1196 21.285 19.1099 21.2926 19.1 21.3C17.9518 22.1612 16.842 22.5196 15.7358 22.4346C14.6667 22.3523 13.7433 21.864 12.9453 21.3321C12.9196 21.3149 12.8948 21.2967 12.8708 21.2772L12.4653 20.949L8.70711 24.7071C8.31658 25.0976 7.68342 25.0976 7.29289 24.7071C6.90237 24.3166 6.90237 23.6834 7.29289 23.2929L10.9022 19.6836L4 14.0961V26C4 26.5523 4.44772 27 5 27H27C27.5523 27 28 26.5523 28 26V14.0961Z" fill="black"/>
</svg>
