<svg width="32" height="32" viewBox="0 0 32 32" fill="none" xmlns="http://www.w3.org/2000/svg">
<path fill-rule="evenodd" clip-rule="evenodd" d="M3.92843 4C3.7011 4 3.48309 4.09031 3.32234 4.25105C3.16159 4.4118 3.07129 4.62981 3.07129 4.85714V19.7143C3.07129 21.9118 3.94425 24.0193 5.49812 25.5732C7.05199 27.127 9.1595 28 11.357 28H20.6427C22.8402 28 24.9477 27.127 26.5016 25.5732C28.0555 24.0193 28.9284 21.9118 28.9284 19.7143V4.85714C28.9284 4.62982 28.8381 4.4118 28.6774 4.25105C28.5166 4.09031 28.2986 4 28.0713 4H23.4284C22.8761 4 22.4284 3.55228 22.4284 3C22.4284 2.44772 22.8761 2 23.4284 2H28.0713C28.8291 2 29.5558 2.30102 30.0916 2.83684C30.6274 3.37266 30.9284 4.09938 30.9284 4.85714V19.7143C30.9284 22.4422 29.8448 25.0584 27.9158 26.9874C25.9869 28.9163 23.3707 30 20.6427 30H11.357C8.62906 30 6.01285 28.9163 4.0839 26.9874C2.15496 25.0584 1.07129 22.4422 1.07129 19.7143V4.85714C1.07129 4.09938 1.37231 3.37266 1.90813 2.83684C2.44395 2.30102 3.17067 2 3.92843 2H8.57129C9.12357 2 9.57129 2.44772 9.57129 3C9.57129 3.55228 9.12357 4 8.57129 4H3.92843Z" fill="black"/>
<path fill-rule="evenodd" clip-rule="evenodd" d="M10.3571 16.9286C10.3571 16.3763 10.8049 15.9286 11.3571 15.9286H13.2143C13.7666 15.9286 14.2143 16.3763 14.2143 16.9286C14.2143 17.4809 13.7666 17.9286 13.2143 17.9286H11.3571C10.8049 17.9286 10.3571 17.4809 10.3571 16.9286Z" fill="black"/>
<path fill-rule="evenodd" clip-rule="evenodd" d="M17.7857 16.9286C17.7857 16.3763 18.2334 15.9286 18.7857 15.9286H20.6429C21.1951 15.9286 21.6429 16.3763 21.6429 16.9286C21.6429 17.4809 21.1951 17.9286 20.6429 17.9286H18.7857C18.2334 17.9286 17.7857 17.4809 17.7857 16.9286Z" fill="black"/>
<path fill-rule="evenodd" clip-rule="evenodd" d="M9.5 19.6429C10.0523 19.6429 10.5 20.0906 10.5 20.6429V22.5C10.5 23.0523 10.0523 23.5 9.5 23.5C8.94772 23.5 8.5 23.0523 8.5 22.5V20.6429C8.5 20.0906 8.94772 19.6429 9.5 19.6429Z" fill="black"/>
<path fill-rule="evenodd" clip-rule="evenodd" d="M22.5 19.6429C23.0523 19.6429 23.5 20.0906 23.5 20.6429V22.5C23.5 23.0523 23.0523 23.5 22.5 23.5C21.9477 23.5 21.5 23.0523 21.5 22.5V20.6429C21.5 20.0906 21.9477 19.6429 22.5 19.6429Z" fill="black"/>
<path fill-rule="evenodd" clip-rule="evenodd" d="M11.0248 7.18244C11.5112 6.83169 12.0958 6.64291 12.6955 6.64286H19.3045C19.9043 6.64291 20.4889 6.83169 20.9753 7.18244C21.4618 7.53315 21.8255 8.02801 22.015 8.59691V8.59691L23.4063 12.7707L24.8823 14.9812C25.1922 15.4508 25.3565 16.0013 25.3547 16.5638L25.3547 16.566L24.3547 16.5621H25.3547V16.5638V18.7907C25.3547 19.5484 25.0537 20.2752 24.5179 20.811C23.9821 21.3468 23.2553 21.6478 22.4976 21.6478H9.49758C8.73982 21.6478 8.0131 21.3468 7.47728 20.811C6.94146 20.2752 6.64044 19.5484 6.64044 18.7907V16.5621C6.6405 15.998 6.80752 15.4465 7.12044 14.9772L8.59384 12.7707L8.55137 12.8981L9.50006 13.2143L8.66842 12.659L8.59384 12.7707L9.98501 8.59714C10.1746 8.02823 10.5384 7.53315 11.0248 7.18244ZM12.6956 8.64286C12.5157 8.64289 12.3404 8.69952 12.1945 8.80473C12.0485 8.90996 11.9394 9.05844 11.8825 9.22914L10.4487 13.5305C10.4206 13.6151 10.3812 13.6955 10.3317 13.7696L8.78444 16.0868V16.0868C8.69072 16.2275 8.64048 16.3931 8.64044 16.5621V16.5621V18.7907C8.64044 19.018 8.73075 19.236 8.89149 19.3968C9.05223 19.5575 9.27025 19.6478 9.49758 19.6478H22.4976C22.7249 19.6478 22.9429 19.5575 23.1037 19.3968C23.2644 19.236 23.3547 19.018 23.3547 18.7907V16.5582C23.3554 16.3899 23.3065 16.2252 23.2142 16.0846L23.213 16.0828L21.6684 13.7696C21.6189 13.6955 21.5796 13.6151 21.5514 13.5305L20.1177 9.22937C20.0608 9.05867 19.9516 8.90996 19.8057 8.80473C19.6597 8.69952 19.4844 8.64289 19.3045 8.64286M12.6956 8.64286V8.64286ZM19.3045 8.64286H12.6956Z" fill="black"/>
<path fill-rule="evenodd" clip-rule="evenodd" d="M8.5 13.2143C8.5 12.662 8.94772 12.2143 9.5 12.2143H22.5C23.0523 12.2143 23.5 12.662 23.5 13.2143C23.5 13.7666 23.0523 14.2143 22.5 14.2143H9.5C8.94772 14.2143 8.5 13.7666 8.5 13.2143Z" fill="black"/>
</svg>
