<svg width="32" height="32" viewBox="0 0 32 32" fill="none" xmlns="http://www.w3.org/2000/svg">
<path fill-rule="evenodd" clip-rule="evenodd" d="M2.64219 1.84433C3.17968 1.30684 3.90867 1.00488 4.6688 1.00488H18.8248C19.5844 1.00504 20.313 1.30674 20.8503 1.84368L29.0886 10.082C29.6256 10.6193 29.9275 11.3479 29.9276 12.1075V28.1298C29.9276 28.8899 29.6257 29.6189 29.0882 30.1564C28.5507 30.6939 27.8217 30.9958 27.0616 30.9958H4.6688C3.90867 30.9958 3.17968 30.6939 2.64219 30.1564C2.10469 29.6189 1.80273 28.8899 1.80273 28.1298V3.87095C1.80273 3.11082 2.10469 2.38182 2.64219 1.84433ZM4.6688 3.00488C4.4391 3.00488 4.21882 3.09613 4.0564 3.25855C3.89398 3.42097 3.80273 3.64125 3.80273 3.87095V28.1298C3.80273 28.3595 3.89398 28.5798 4.0564 28.7422C4.21882 28.9046 4.43911 28.9958 4.6688 28.9958H27.0616C27.2913 28.9958 27.5116 28.9046 27.674 28.7422C27.8364 28.5798 27.9276 28.3595 27.9276 28.1298V12.108V12.108C27.9275 11.8785 27.8364 11.6583 27.6742 11.496L19.4366 3.25835V3.25835C19.2743 3.09629 19.0541 3.00499 18.8248 3.00488V3.00488H4.6688Z" fill="black"/>
<path fill-rule="evenodd" clip-rule="evenodd" d="M19.5974 1.17278C20.1496 1.17278 20.5974 1.6205 20.5974 2.17278V9.46909C20.5974 9.69879 20.6886 9.91907 20.851 10.0815C21.0134 10.2439 21.2337 10.3352 21.4634 10.3352H28.7597C29.312 10.3352 29.7597 10.7829 29.7597 11.3352C29.7597 11.8874 29.312 12.3352 28.7597 12.3352H21.4634C20.7033 12.3352 19.9743 12.0332 19.4368 11.4957C18.8993 10.9582 18.5974 10.2292 18.5974 9.46909V2.17278C18.5974 1.6205 19.0451 1.17278 19.5974 1.17278Z" fill="black"/>
<path fill-rule="evenodd" clip-rule="evenodd" d="M12.1331 16.5554C12.6854 16.5554 13.1331 17.0031 13.1331 17.5554V23.3977H18.5974V17.5554C18.5974 17.0031 19.0451 16.5554 19.5974 16.5554C20.1496 16.5554 20.5974 17.0031 20.5974 17.5554V24.3977C20.5974 24.9499 20.1496 25.3977 19.5974 25.3977H12.1331C11.5808 25.3977 11.1331 24.9499 11.1331 24.3977V17.5554C11.1331 17.0031 11.5808 16.5554 12.1331 16.5554Z" fill="black"/>
<path fill-rule="evenodd" clip-rule="evenodd" d="M15.3105 14.2353C15.6464 14.0114 16.084 14.0114 16.4199 14.2353L22.0181 17.9674C22.4777 18.2738 22.6018 18.8946 22.2955 19.3542C21.9891 19.8137 21.3683 19.9379 20.9087 19.6315L15.8652 16.2692L10.8217 19.6315C10.3622 19.9379 9.74134 19.8137 9.43499 19.3542C9.12864 18.8946 9.25281 18.2738 9.71234 17.9674L15.3105 14.2353Z" fill="black"/>
</svg>
